<?xml version="1.0" encoding="utf-8"?>
<!-- Generator: Adobe Illustrator 21.0.2, SVG Export Plug-In . SVG Version: 6.00 Build 0)  -->
<svg version="1.1" id="Layer_1" xmlns="http://www.w3.org/2000/svg" xmlns:xlink="http://www.w3.org/1999/xlink" x="0px" y="0px"
	 viewBox="0 0 300 300" style="enable-background:new 0 0 300 300;" xml:space="preserve">
<style type="text/css">
	.st0{fill:#CAD7E0;}
	.st1{fill:#6D7A8A;}
	.st2{fill:#EAECD6;}
	.st3{fill:#7B888E;}
	.st4{fill:#C1504D;}
	.st5{fill:#8E9DA4;}
	.st6{fill:#FFFFFF;}
	.st7{fill:#D85E55;}
	.st8{fill:#5B6974;}
</style>
<g id="background">
	<path class="st0" d="M49.3,79.9v199.3c0,6.3,5.1,11.4,11.3,11.4h190c6.3,0,11.4-5.1,11.4-11.4V79.9H49.3z"/>
	<path class="st1" d="M262,12.4c0-6.3-5.1-11.4-11.4-11.4h-190c-6.3,0-11.4,5.1-11.4,11.4v67.5H262V12.4z"/>
</g>
<path id="screen" class="st2" d="M249.2,60c0,5.1-4.1,9.2-9.2,9.2H71.1c-5.1,0-9.2-4.1-9.2-9.2V24.7c0-5.1,4.1-9.2,9.2-9.2H240
	c5.1,0,9.2,4.1,9.2,9.2V60z"/>
<g id="button-shadows">
	<path class="st3" d="M88.5,122c0,0.9-0.7,1.6-1.5,1.6H57.8c-0.9,0-1.6-0.7-1.6-1.6V92.8c0-0.9,0.7-1.6,1.6-1.6h29.2
		c0.9,0,1.5,0.8,1.5,1.6V122z"/>
	<path class="st3" d="M128.4,122c0,0.9-0.7,1.6-1.6,1.6H97.6c-0.9,0-1.7-0.7-1.7-1.6V92.8c0-0.9,0.8-1.6,1.7-1.6h29.2
		c0.9,0,1.6,0.8,1.6,1.6V122z"/>
	<path class="st3" d="M168.3,122c0,0.9-0.7,1.5-1.6,1.5h-29.2c-0.9,0-1.6-0.7-1.6-1.5V92.8c0-0.9,0.7-1.6,1.6-1.6h29.2
		c0.9,0,1.6,0.8,1.6,1.6V122z"/>
	<path class="st3" d="M208.2,122c0,0.9-0.7,1.6-1.6,1.6h-29.2c-0.9,0-1.6-0.7-1.6-1.6V92.8c0-0.9,0.7-1.6,1.6-1.6h29.2
		c0.9,0,1.6,0.8,1.6,1.6V122z"/>
	<path class="st3" d="M248.1,122c0,0.9-0.7,1.5-1.6,1.5h-29.2c-0.9,0-1.6-0.7-1.6-1.5V92.8c0-0.9,0.8-1.6,1.6-1.6h29.2
		c0.9,0,1.6,0.8,1.6,1.6V122z"/>
	<path class="st3" d="M88.5,161.5c0,0.9-0.7,1.6-1.5,1.6H57.8c-0.9,0-1.6-0.7-1.6-1.6v-29.2c0-0.9,0.7-1.7,1.6-1.7h29.2
		c0.9,0,1.5,0.8,1.5,1.7V161.5z"/>
	<path class="st3" d="M128.4,161.5c0,0.9-0.7,1.6-1.6,1.6H97.6c-0.9,0-1.7-0.7-1.7-1.6v-29.2c0-0.9,0.8-1.7,1.7-1.7h29.2
		c0.9,0,1.6,0.8,1.6,1.7V161.5z"/>
	<path class="st3" d="M168.3,161.5c0,0.9-0.7,1.6-1.6,1.6h-29.2c-0.9,0-1.6-0.7-1.6-1.6v-29.2c0-0.9,0.7-1.7,1.6-1.7h29.2
		c0.9,0,1.6,0.8,1.6,1.7V161.5z"/>
	<path class="st3" d="M208.2,161.5c0,0.9-0.7,1.6-1.6,1.6h-29.2c-0.9,0-1.6-0.7-1.6-1.6v-29.2c0-0.9,0.7-1.7,1.6-1.7h29.2
		c0.9,0,1.6,0.8,1.6,1.7V161.5z"/>
	<path class="st3" d="M248.1,161.5c0,0.9-0.7,1.6-1.6,1.6h-29.2c-0.9,0-1.6-0.7-1.6-1.6v-29.2c0-0.9,0.8-1.7,1.6-1.7h29.2
		c0.9,0,1.6,0.8,1.6,1.7V161.5z"/>
	<path class="st3" d="M88.5,200.9c0,0.9-0.7,1.5-1.5,1.5H57.8c-0.9,0-1.6-0.7-1.6-1.5v-29.2c0-0.9,0.7-1.7,1.6-1.7h29.2
		c0.9,0,1.5,0.8,1.5,1.7V200.9z"/>
	<path class="st3" d="M128.4,200.9c0,0.9-0.7,1.5-1.6,1.5H97.6c-0.9,0-1.7-0.7-1.7-1.5v-29.2c0-0.9,0.8-1.7,1.7-1.7h29.2
		c0.9,0,1.6,0.8,1.6,1.7V200.9z"/>
	<path class="st3" d="M168.3,200.8c0,0.9-0.7,1.6-1.6,1.6h-29.2c-0.9,0-1.6-0.7-1.6-1.6v-29.2c0-0.9,0.7-1.6,1.6-1.6h29.2
		c0.9,0,1.6,0.7,1.6,1.6V200.8z"/>
	<path class="st3" d="M208.2,200.8c0,0.9-0.7,1.6-1.6,1.6h-29.2c-0.9,0-1.6-0.7-1.6-1.6v-29.2c0-0.9,0.7-1.6,1.6-1.6h29.2
		c0.9,0,1.6,0.7,1.6,1.6V200.8z"/>
	<path class="st3" d="M248,200.8c0,0.9-0.7,1.6-1.6,1.6h-29.2c-0.9,0-1.6-0.7-1.6-1.6v-29.2c0-0.9,0.7-1.6,1.6-1.6h29.2
		c0.9,0,1.6,0.7,1.6,1.6V200.8z"/>
	<path class="st4" d="M88.5,243.5c0,0.9-0.7,1.6-1.6,1.6H57.8c-0.9,0-1.6-0.7-1.6-1.6v-29.2c0-0.9,0.7-1.6,1.6-1.6h29.2
		c0.9,0,1.6,0.7,1.6,1.6V243.5z"/>
	<path class="st3" d="M128.4,243.5c0,0.9-0.7,1.6-1.6,1.6H97.6c-0.9,0-1.7-0.7-1.7-1.6v-29.2c0-0.9,0.8-1.6,1.7-1.6h29.2
		c0.9,0,1.6,0.7,1.6,1.6V243.5z"/>
	<path class="st3" d="M168.3,243.6c0,0.9-0.7,1.6-1.6,1.6h-29.2c-0.9,0-1.6-0.7-1.6-1.6v-29.2c0-0.9,0.7-1.7,1.6-1.7h29.2
		c0.9,0,1.6,0.8,1.6,1.7V243.6z"/>
	<path class="st3" d="M208.2,243.6c0,0.9-0.7,1.6-1.6,1.6h-29.2c-0.9,0-1.6-0.7-1.6-1.6v-29.2c0-0.9,0.7-1.7,1.6-1.7h29.2
		c0.9,0,1.6,0.8,1.6,1.7V243.6z"/>
	<path class="st4" d="M88.5,282.8c0,0.9-0.8,1.6-1.6,1.6H57.8c-0.9,0-1.6-0.8-1.6-1.6v-29.1c0-0.9,0.7-1.6,1.6-1.6h29.1
		c0.9,0,1.6,0.7,1.6,1.6V282.8z"/>
	<path class="st3" d="M128.4,282.8c0,0.9-0.7,1.6-1.6,1.6H97.7c-0.9,0-1.7-0.7-1.7-1.6v-29.1c0-0.9,0.8-1.6,1.7-1.6h29.1
		c0.9,0,1.6,0.8,1.6,1.6V282.8z"/>
	<path class="st3" d="M168.3,282.8c0,0.9-0.7,1.6-1.6,1.6h-29.1c-0.9,0-1.7-0.7-1.7-1.6v-29.1c0-0.9,0.8-1.6,1.7-1.6h29.1
		c0.9,0,1.6,0.8,1.6,1.6V282.8z"/>
	<path class="st3" d="M208.2,282.8c0,0.9-0.7,1.6-1.6,1.6h-29.1c-0.9,0-1.7-0.7-1.7-1.6v-29.1c0-0.9,0.8-1.6,1.7-1.6h29.1
		c0.9,0,1.6,0.8,1.6,1.6V282.8z"/>
	<path class="st3" d="M248,214.3c0-0.9-0.6-1.6-1.5-1.6h-29.2c-0.9,0-1.6,0.8-1.6,1.6v68.5c0,0.9,0.7,1.6,1.6,1.6h29.2
		c0.9,0,1.5-0.7,1.5-1.6V214.3z"/>
</g>
<g id="off-button">
	<path class="st5" d="M89.7,120.4c0,0.9-0.7,1.6-1.6,1.6H58.9c-0.9,0-1.7-0.7-1.7-1.6V91.3c0-0.9,0.8-1.6,1.7-1.6h29.2
		c0.9,0,1.6,0.8,1.6,1.6V120.4z"/>
	<g>
		<g>
			<path class="st6" d="M70.5,105.7c0,3.1-1.9,4.9-4.5,4.9c-2.6,0-4.3-2-4.3-4.7c0-2.9,1.8-4.9,4.4-4.9
				C68.9,101,70.5,103.1,70.5,105.7z M63.5,105.9c0,1.9,1,3.4,2.6,3.4c1.6,0,2.6-1.5,2.6-3.5c0-1.8-0.9-3.4-2.6-3.4
				C64.4,102.4,63.5,104,63.5,105.9z"/>
			<path class="st6" d="M71.9,101.2h5.4v1.4h-3.7v2.6h3.4v1.4h-3.4v3.9h-1.7V101.2z"/>
			<path class="st6" d="M79,101.2h5.4v1.4h-3.7v2.6h3.4v1.4h-3.4v3.9H79V101.2z"/>
		</g>
	</g>
</g>
<g id="MRG-button">
	<path class="st5" d="M129.5,120.4c0,0.9-0.6,1.6-1.5,1.6H98.8c-0.9,0-1.6-0.7-1.6-1.6V91.3c0-0.9,0.7-1.6,1.6-1.6H128
		c0.9,0,1.5,0.8,1.5,1.6V120.4z"/>
	<g>
		<g>
			<path class="st6" d="M107.4,106.7c-0.1-1.2-0.1-2.7-0.1-3.9h0c-0.3,1.1-0.7,2.4-1.1,3.6l-1.4,4h-1.3l-1.2-4
				c-0.4-1.2-0.7-2.5-0.9-3.6h0c0,1.2-0.1,2.7-0.2,4l-0.2,3.7h-1.6l0.6-9.3h2.2l1.2,3.7c0.3,1.1,0.6,2.2,0.9,3.2h0
				c0.2-1,0.6-2.2,0.9-3.2l1.3-3.7h2.2l0.5,9.3h-1.7L107.4,106.7z"/>
			<path class="st6" d="M111,101.3c0.6-0.1,1.6-0.2,2.6-0.2c1.3,0,2.2,0.2,2.9,0.7c0.5,0.4,0.8,1.1,0.8,1.9c0,1.2-0.8,2-1.7,2.3v0
				c0.7,0.2,1.1,0.9,1.3,1.8c0.3,1.2,0.5,2.2,0.7,2.6h-1.8c-0.1-0.3-0.4-1-0.6-2.2c-0.3-1.2-0.7-1.6-1.7-1.6h-0.9v3.8H111V101.3z
				 M112.7,105.4h1c1.1,0,1.9-0.6,1.9-1.5c0-1-0.7-1.5-1.8-1.5c-0.5,0-0.9,0-1,0.1V105.4z"/>
			<path class="st6" d="M126.3,110.1c-0.6,0.2-1.8,0.5-3,0.5c-1.6,0-2.8-0.4-3.6-1.2c-0.8-0.8-1.3-2-1.3-3.4c0-2.9,2.1-4.8,5.2-4.8
				c1.1,0,2,0.2,2.5,0.4l-0.4,1.4c-0.5-0.2-1.1-0.4-2.1-0.4c-2,0-3.4,1.2-3.4,3.3c0,2.1,1.3,3.4,3.2,3.4c0.6,0,1.1-0.1,1.3-0.2v-2.3
				H123v-1.3h3.3V110.1z"/>
		</g>
	</g>
</g>
<g id="M-minus-button">
	<path class="st5" d="M169.5,120.5c0,0.9-0.7,1.5-1.6,1.5h-29.2c-0.9,0-1.6-0.7-1.6-1.5V91.3c0-0.9,0.7-1.6,1.6-1.6h29.2
		c0.9,0,1.6,0.8,1.6,1.6V120.5z"/>
	<g>
		<g>
			<path class="st6" d="M154.1,106.7c-0.1-1.2-0.1-2.7-0.1-3.9h0c-0.3,1.1-0.7,2.4-1.1,3.6l-1.4,4h-1.3l-1.2-4
				c-0.4-1.2-0.7-2.5-0.9-3.6h0c0,1.2-0.1,2.7-0.2,4l-0.2,3.7H146l0.6-9.3h2.2l1.2,3.7c0.3,1.1,0.6,2.2,0.9,3.2h0
				c0.2-1,0.6-2.2,0.9-3.2l1.3-3.7h2.2l0.5,9.3h-1.7L154.1,106.7z"/>
			<path class="st6" d="M160.7,106.2v1.2h-3.5v-1.2H160.7z"/>
		</g>
	</g>
</g>
<g id="m-plus-button">
	<path class="st5" d="M209.4,120.4c0,0.9-0.7,1.6-1.6,1.6h-29.2c-0.9,0-1.7-0.7-1.7-1.6V91.3c0-0.9,0.8-1.6,1.7-1.6h29.2
		c0.9,0,1.6,0.8,1.6,1.6V120.4z"/>
	<g>
		<g>
			<path class="st6" d="M193.7,106.7c-0.1-1.2-0.1-2.7-0.1-3.9h0c-0.3,1.1-0.7,2.4-1.1,3.6l-1.4,4h-1.3l-1.2-4
				c-0.4-1.2-0.7-2.5-0.9-3.6h0c0,1.2-0.1,2.7-0.2,4l-0.2,3.7h-1.6l0.6-9.3h2.2l1.2,3.7c0.3,1.1,0.6,2.2,0.9,3.2h0
				c0.2-1,0.6-2.2,0.9-3.2l1.3-3.7h2.2l0.5,9.3h-1.7L193.7,106.7z"/>
			<path class="st6" d="M201,103.2v3.1h3v1.1h-3v3.1h-1.1v-3.1h-3v-1.1h3v-3.1H201z"/>
		</g>
	</g>
</g>
<g id="division-button_1_">
	<path class="st5" d="M249.2,120.5c0,0.9-0.7,1.5-1.6,1.5h-29.2c-0.9,0-1.6-0.7-1.6-1.5V91.3c0-0.9,0.7-1.6,1.6-1.6h29.2
		c0.9,0,1.6,0.8,1.6,1.6V120.5z"/>
	<g>
		<g>
			<path class="st6" d="M227.5,107.3v-1.8h11.6v1.8H227.5z M231.8,102.5c0-0.9,0.6-1.5,1.4-1.5c0.9,0,1.4,0.6,1.4,1.5
				c0,0.9-0.6,1.5-1.4,1.5C232.4,104,231.8,103.4,231.8,102.5z M231.8,110.4c0-0.9,0.6-1.5,1.4-1.5c0.9,0,1.4,0.6,1.4,1.5
				c0,0.9-0.6,1.5-1.4,1.5C232.4,111.8,231.8,111.2,231.8,110.4z"/>
		</g>
	</g>
</g>
<g id="multiplication-button">
	<path class="st5" d="M249.2,160c0,0.9-0.7,1.5-1.6,1.5h-29.2c-0.9,0-1.6-0.7-1.6-1.5v-29.2c0-0.9,0.7-1.7,1.6-1.7h29.2
		c0.9,0,1.6,0.8,1.6,1.7V160z"/>
	<g>
		
			<rect x="232.1" y="138.6" transform="matrix(0.7071 -0.7071 0.7071 0.7071 -35.033 207.7451)" class="st6" width="2.2" height="15.2"/>
		
			<rect x="225.7" y="145.1" transform="matrix(0.7071 -0.7071 0.7071 0.7071 -35.0331 207.7448)" class="st6" width="15.2" height="2.2"/>
	</g>
</g>
<g id="minus-button">
	<path class="st5" d="M249.2,199.4c0,0.9-0.7,1.6-1.6,1.6h-29.2c-0.9,0-1.6-0.7-1.6-1.6v-29.2c0-0.9,0.7-1.6,1.6-1.6h29.2
		c0.9,0,1.6,0.8,1.6,1.6V199.4z"/>
	<g>
		<g>
			<path class="st6" d="M236.8,184.1v2.1h-9.1v-2.1H236.8z"/>
		</g>
	</g>
</g>
<g id="plus-button">
	<path class="st5" d="M249.2,212.8c0-0.9-0.7-1.6-1.6-1.6h-29.2c-0.9,0-1.6,0.8-1.6,1.6v68.5c0,0.9,0.7,1.5,1.6,1.5h29.2
		c0.9,0,1.6-0.6,1.6-1.5V212.8z"/>
	<g>
		<g>
			<path class="st6" d="M233.6,240.9v6.7h6.5v2.3h-6.5v6.8h-2.4V250h-6.5v-2.3h6.5v-6.7H233.6z"/>
		</g>
	</g>
</g>
<g id="left-over-division-button">
	<path class="st5" d="M89.7,160c0,0.9-0.7,1.5-1.6,1.5H58.9c-0.9,0-1.7-0.7-1.7-1.5v-29.2c0-0.9,0.8-1.7,1.7-1.7h29.2
		c0.9,0,1.6,0.8,1.6,1.7V160z"/>
	<g>
		<g>
			<path class="st6" d="M72.5,143.3c0,2.4-1.4,3.6-2.9,3.6c-1.6,0-2.9-1.2-2.9-3.4c0-2.1,1.2-3.5,3-3.5
				C71.4,140,72.5,141.3,72.5,143.3z M68.3,143.5c0,1.3,0.4,2.2,1.3,2.2c0.8,0,1.3-0.9,1.3-2.3c0-1.2-0.3-2.2-1.3-2.2
				C68.7,141.2,68.3,142.2,68.3,143.5z M69.6,151.6l6.5-11.6h1.2l-6.5,11.6H69.6z M80.2,148c0,2.4-1.4,3.6-2.9,3.6
				c-1.6,0-2.9-1.2-2.9-3.4c0-2.1,1.2-3.5,2.9-3.5C79.2,144.6,80.2,146,80.2,148z M76.1,148.1c0,1.3,0.5,2.2,1.3,2.2
				c0.9,0,1.3-0.9,1.3-2.3c0-1.3-0.3-2.2-1.3-2.2C76.5,145.9,76.1,146.9,76.1,148.1z"/>
		</g>
	</g>
</g>
<g id="num-7-button">
	<path class="st5" d="M129.5,160c0,0.9-0.6,1.5-1.5,1.5H98.8c-0.9,0-1.6-0.7-1.6-1.5v-29.2c0-0.9,0.7-1.7,1.6-1.7H128
		c0.9,0,1.5,0.8,1.5,1.7V160z"/>
	<g>
		<g>
			<path class="st6" d="M116.9,140.6v1.4l-4.8,9.9h-2.2l4.7-9.4v0h-5.3v-1.8H116.9z"/>
		</g>
	</g>
</g>
<g id="num-8-button">
	<path class="st5" d="M169.5,159.9c0,0.9-0.7,1.6-1.6,1.6h-29.2c-0.9,0-1.6-0.7-1.6-1.6v-29.2c0-0.9,0.7-1.6,1.6-1.6h29.2
		c0.9,0,1.6,0.7,1.6,1.6V159.9z"/>
	<g>
		<g>
			<path class="st6" d="M149.2,149c0-1.4,0.8-2.4,2.1-2.9V146c-1.2-0.6-1.7-1.5-1.7-2.5c0-1.8,1.6-3.1,3.8-3.1
				c2.4,0,3.5,1.5,3.5,2.8c0,1-0.5,1.9-1.7,2.5v0.1c1.2,0.5,2.1,1.4,2.1,2.8c0,2-1.7,3.4-4.1,3.4C150.5,152.1,149.2,150.6,149.2,149
				z M155.1,148.9c0-1.1-0.8-1.8-2.1-2.1c-1.1,0.3-1.7,1-1.7,2c0,1,0.7,1.8,1.9,1.8C154.4,150.6,155.1,149.9,155.1,148.9z
				 M151.6,143.4c0,0.9,0.8,1.5,1.8,1.8c0.8-0.2,1.4-0.8,1.4-1.7c0-0.8-0.5-1.6-1.6-1.6C152.1,141.9,151.6,142.6,151.6,143.4z"/>
		</g>
	</g>
</g>
<g id="num-9-button">
	<path class="st5" d="M209.4,160c0,0.9-0.7,1.5-1.6,1.5h-29.2c-0.9,0-1.7-0.7-1.7-1.5v-29.2c0-0.9,0.8-1.7,1.7-1.7h29.2
		c0.9,0,1.6,0.8,1.6,1.7V160z"/>
	<g>
		<g>
			<path class="st6" d="M190,150.4c0.3,0,0.7,0,1.2,0c0.8-0.1,1.7-0.4,2.3-0.9c0.7-0.6,1.2-1.4,1.4-2.5l0,0c-0.6,0.6-1.4,1-2.5,1
				c-2,0-3.4-1.4-3.4-3.5c0-2.1,1.7-4,4.1-4c2.6,0,4,2.1,4,4.8c0,2.4-0.8,4.1-2,5.2c-1,0.9-2.3,1.4-3.8,1.5c-0.5,0.1-1,0.1-1.3,0
				V150.4z M191.1,144.3c0,1.2,0.7,2.1,1.9,2.1c0.9,0,1.5-0.4,1.8-0.9c0.1-0.1,0.1-0.3,0.1-0.6c0-1.5-0.6-2.8-1.9-2.8
				C191.9,142,191.1,143,191.1,144.3z"/>
		</g>
	</g>
</g>
<g id="num-4-button">
	<path class="st5" d="M129.5,199.4c0,0.9-0.6,1.5-1.5,1.5H98.8c-0.9,0-1.6-0.7-1.6-1.5v-29.2c0-0.9,0.7-1.6,1.6-1.6H128
		c0.9,0,1.5,0.7,1.5,1.6V199.4z"/>
	<g>
		<g>
			<path class="st6" d="M113.9,189.9V187h-5.1v-1.4l4.6-7h2.5v6.8h1.5v1.6h-1.5v2.9H113.9z M113.9,185.4v-3.1c0-0.6,0-1.3,0.1-2
				h-0.1c-0.3,0.7-0.6,1.3-1,1.9l-2.1,3.1l0,0H113.9z"/>
		</g>
	</g>
</g>
<g id="num-5-button">
	<path class="st5" d="M169.5,199.4c0,0.9-0.7,1.6-1.6,1.6h-29.2c-0.9,0-1.6-0.7-1.6-1.6v-29.2c0-0.9,0.7-1.6,1.6-1.6h29.2
		c0.9,0,1.6,0.8,1.6,1.6V199.4z"/>
	<g>
		<g>
			<path class="st6" d="M156.5,180.4h-4.3l-0.3,2.2c0.3,0,0.5-0.1,0.8-0.1c1,0,2,0.2,2.7,0.7c0.8,0.5,1.5,1.5,1.5,2.9
				c0,2.1-1.8,3.9-4.6,3.9c-1.3,0-2.4-0.3-3-0.7l0.4-1.6c0.5,0.3,1.5,0.6,2.5,0.6c1.2,0,2.4-0.7,2.4-2.1c0-1.3-1-2.1-3.2-2.1
				c-0.6,0-1.1,0-1.5,0.1l0.7-5.7h5.8V180.4z"/>
		</g>
	</g>
</g>
<g id="num-6-button">
	<path class="st5" d="M209.3,199.4c0,0.9-0.7,1.6-1.6,1.6h-29.2c-0.9,0-1.6-0.7-1.6-1.6v-29.2c0-0.9,0.7-1.6,1.6-1.6h29.2
		c0.9,0,1.6,0.8,1.6,1.6V199.4z"/>
	<g>
		<g>
			<path class="st6" d="M196,180.2c-0.3,0-0.7,0-1.1,0.1c-2.4,0.3-3.5,1.7-3.8,3.3h0.1c0.6-0.6,1.4-1.1,2.5-1.1
				c1.9,0,3.4,1.4,3.4,3.7c0,2.1-1.6,4-4,4c-2.7,0-4.2-2.1-4.2-4.8c0-2.2,0.8-3.9,2-5.1c1-1,2.4-1.5,4-1.7c0.5-0.1,0.8-0.1,1.1,0
				L196,180.2z M195,186.2c0-1.3-0.7-2.2-2-2.2c-0.8,0-1.5,0.5-1.8,1.2c-0.1,0.2-0.1,0.4-0.1,0.7c0,1.5,0.7,2.7,2.1,2.7
				C194.3,188.5,195,187.5,195,186.2z"/>
		</g>
	</g>
</g>
<g id="num-1-button">
	<path class="st5" d="M129.5,242c0,0.9-0.6,1.6-1.5,1.6H98.8c-0.9,0-1.6-0.7-1.6-1.6v-29.2c0-0.9,0.7-1.6,1.6-1.6H128
		c0.9,0,1.5,0.8,1.5,1.6V242z"/>
	<g>
		<g>
			<path class="st6" d="M112.5,223.9L112.5,223.9l-2.1,1l-0.4-1.6l2.7-1.3h1.8v11.2h-2.1V223.9z"/>
		</g>
	</g>
</g>
<g id="num2-button">
	<path class="st5" d="M169.5,242c0,0.9-0.7,1.6-1.6,1.6h-29.2c-0.9,0-1.6-0.7-1.6-1.6v-29.2c0-0.9,0.7-1.7,1.6-1.7h29.2
		c0.9,0,1.6,0.8,1.6,1.7V242z"/>
	<g>
		<g>
			<path class="st6" d="M149.3,233.2v-1.3l1.3-1.2c2.6-2.5,3.9-3.8,3.9-5.3c0-1-0.5-1.9-2-1.9c-1,0-1.8,0.5-2.4,0.9l-0.6-1.5
				c0.8-0.7,2-1.2,3.5-1.2c2.5,0,3.7,1.6,3.7,3.4c0,2-1.4,3.6-3.4,5.4l-1,0.8v0h4.6v1.8H149.3z"/>
		</g>
	</g>
</g>
<g id="num-3-button">
	<path class="st5" d="M209.3,241.9c0,0.9-0.7,1.6-1.6,1.6h-29.2c-0.9,0-1.6-0.7-1.6-1.6v-29.2c0-0.9,0.7-1.6,1.6-1.6h29.2
		c0.9,0,1.6,0.7,1.6,1.6V241.9z"/>
	<g>
		<g>
			<path class="st6" d="M189.6,231c0.4,0.3,1.5,0.7,2.6,0.7c1.6,0,2.3-0.9,2.3-1.8c0-1.3-1.2-1.9-2.5-1.9h-1v-1.6h1
				c1,0,2.2-0.4,2.2-1.6c0-0.8-0.6-1.4-1.8-1.4c-0.9,0-1.8,0.4-2.3,0.7l-0.5-1.5c0.6-0.4,1.9-0.9,3.2-0.9c2.3,0,3.5,1.3,3.5,2.8
				c0,1.2-0.7,2.1-2.1,2.6v0c1.4,0.2,2.5,1.3,2.5,2.8c0,1.9-1.6,3.4-4.4,3.4c-1.4,0-2.5-0.4-3.1-0.8L189.6,231z"/>
		</g>
	</g>
</g>
<g id="plus-or-minus-button">
	<path class="st5" d="M89.7,199.4c0,0.9-0.7,1.5-1.6,1.5H58.9c-0.9,0-1.7-0.7-1.7-1.5v-29.2c0-0.9,0.8-1.6,1.7-1.6h29.2
		c0.9,0,1.6,0.7,1.6,1.6V199.4z"/>
	<g>
		<g>
			<path class="st6" d="M69,181.6v3.9h3.8v1.3H69v3.9h-1.4v-3.9h-3.8v-1.3h3.8v-3.9H69z"/>
			<path class="st6" d="M73.5,191.5l4.2-12.5h1.5L75,191.5H73.5z"/>
			<path class="st6" d="M84.2,185.5v1.5h-4.4v-1.5H84.2z"/>
		</g>
	</g>
</g>
<g id="ON_x2F_C-button">
	<path class="st7" d="M89.7,241.8c0,0.9-0.7,1.6-1.6,1.6H58.9c-0.9,0-1.6-0.7-1.6-1.6v-29.1c0-0.9,0.7-1.6,1.6-1.6h29.1
		c0.9,0,1.6,0.7,1.6,1.6V241.8z"/>
	<g>
		<g>
			<path class="st6" d="M68.4,226.4c0,2.7-1.6,4.2-3.8,4.2c-2.3,0-3.7-1.7-3.7-4.1c0-2.5,1.5-4.2,3.8-4.2
				C67,222.4,68.4,224.2,68.4,226.4z M62.4,226.5c0,1.6,0.8,2.9,2.2,2.9c1.4,0,2.2-1.3,2.2-3c0-1.5-0.7-2.9-2.2-2.9
				C63.2,223.6,62.4,224.9,62.4,226.5z"/>
			<path class="st6" d="M69.6,230.5v-8h1.7l2.1,3.4c0.5,0.9,1,1.8,1.4,2.7h0c-0.1-1.1-0.1-2.1-0.1-3.3v-2.8H76v8h-1.5l-2.1-3.5
				c-0.5-0.9-1-1.9-1.4-2.8l0,0c0.1,1,0.1,2.1,0.1,3.4v2.9H69.6z"/>
			<path class="st6" d="M76.9,231l2.9-8.6h1l-2.9,8.6H76.9z"/>
			<path class="st6" d="M87.3,230.3c-0.3,0.2-1.1,0.4-2.1,0.4c-2.5,0-4.1-1.6-4.1-4c0-2.6,1.8-4.2,4.3-4.2c1,0,1.6,0.2,1.9,0.4
				l-0.3,1.2c-0.4-0.2-0.9-0.3-1.6-0.3c-1.6,0-2.8,1-2.8,2.9c0,1.8,1,2.9,2.8,2.9c0.6,0,1.2-0.1,1.6-0.3L87.3,230.3z"/>
		</g>
	</g>
</g>
<g id="CE-button">
	<path class="st7" d="M89.7,281.3c0,0.9-0.7,1.6-1.6,1.6H58.9c-0.9,0-1.6-0.7-1.6-1.6v-29.1c0-0.9,0.7-1.6,1.6-1.6h29.1
		c0.9,0,1.6,0.7,1.6,1.6V281.3z"/>
	<g>
		<g>
			<path class="st6" d="M72.2,271.5c-0.5,0.2-1.5,0.5-2.8,0.5c-3.4,0-5.4-2.1-5.4-5.4c0-3.5,2.4-5.6,5.7-5.6c1.3,0,2.2,0.3,2.6,0.5
				l-0.4,1.6c-0.5-0.2-1.2-0.4-2.1-0.4c-2.2,0-3.7,1.4-3.7,3.9c0,2.3,1.4,3.8,3.7,3.8c0.8,0,1.6-0.2,2.1-0.4L72.2,271.5z"/>
			<path class="st6" d="M79.8,267.1h-4v3.1h4.5v1.6h-6.4v-10.7h6.2v1.6h-4.3v2.8h4V267.1z"/>
		</g>
	</g>
</g>
<g id="number-0-button">
	<path class="st5" d="M129.5,281.3c0,0.9-0.6,1.5-1.5,1.5H98.8c-0.9,0-1.7-0.7-1.7-1.5v-29.1c0-0.9,0.8-1.6,1.7-1.6H128
		c0.9,0,1.5,0.8,1.5,1.6V281.3z"/>
	<g>
		<g>
			<path class="st6" d="M117.1,268.3c0,3.6-1.4,5.9-4.1,5.9c-2.6,0-4-2.4-4-5.8c0-3.5,1.5-5.9,4.1-5.9
				C115.9,262.5,117.1,264.9,117.1,268.3z M111.2,268.4c0,2.7,0.7,4.2,1.9,4.2c1.2,0,1.9-1.5,1.9-4.2c0-2.6-0.6-4.2-1.9-4.2
				C112,264.1,111.2,265.5,111.2,268.4z"/>
		</g>
	</g>
</g>
<g id="dot-button">
	<path class="st5" d="M169.4,281.3c0,0.9-0.7,1.5-1.6,1.5h-29.1c-0.9,0-1.6-0.7-1.6-1.5v-29.1c0-0.9,0.7-1.6,1.6-1.6h29.1
		c0.9,0,1.6,0.8,1.6,1.6V281.3z"/>
	<g>
		<g>
			<path class="st6" d="M151.8,270.1c0-0.8,0.6-1.4,1.3-1.4c0.8,0,1.3,0.6,1.3,1.4c0,0.8-0.5,1.4-1.3,1.4
				C152.4,271.5,151.8,270.9,151.8,270.1z"/>
		</g>
	</g>
</g>
<g id="result-button">
	<path class="st5" d="M209.4,281.3c0,0.9-0.7,1.5-1.6,1.5h-29.1c-0.9,0-1.7-0.7-1.7-1.5v-29.1c0-0.9,0.9-1.6,1.7-1.6h29.1
		c0.9,0,1.6,0.8,1.6,1.6V281.3z"/>
	<g>
		<g>
			<path class="st6" d="M188.8,267.4V266h8.9v1.4H188.8z M188.8,270.9v-1.4h8.9v1.4H188.8z"/>
		</g>
	</g>
</g>
<path id="screen-border" class="st8" d="M251.3,59.8c0,6.2-5,11.3-11.3,11.3H71.2c-6.2,0-11.3-5-11.3-11.3V24.6
	c0-6.2,5-11.3,11.3-11.3H240c6.2,0,11.3,5,11.3,11.3V59.8z M247.2,24.5c0-3.9-3.2-7.1-7.1-7.1h-169c-3.9,0-7.1,3.2-7.1,7.1v35.3
	c0,3.9,3.2,7.1,7.1,7.1h169c3.9,0,7.1-3.2,7.1-7.1V24.5z"/>
</svg>
